<svg width="18" height="18" viewBox="0 0 18 18" fill="none" xmlns="http://www.w3.org/2000/svg">
<path d="M6.82875 13.5H1.125L1.125 14.625H6.82875C6.95828 15.1016 7.24106 15.5224 7.63346 15.8224C8.02586 16.1224 8.50607 16.2849 9 16.2849C9.49393 16.2849 9.97414 16.1224 10.3665 15.8224C10.7589 15.5224 11.0417 15.1016 11.1713 14.625H16.875V13.5H11.1713C11.0417 13.0233 10.7589 12.6026 10.3665 12.3026C9.97414 12.0026 9.49393 11.84 9 11.84C8.50607 11.84 8.02586 12.0026 7.63346 12.3026C7.24106 12.6026 6.95828 13.0233 6.82875 13.5ZM10.125 14.0625C10.125 14.285 10.059 14.5025 9.9354 14.6875C9.81179 14.8725 9.63609 15.0167 9.43052 15.1018C9.22495 15.187 8.99875 15.2093 8.78052 15.1659C8.56229 15.1224 8.36184 15.0153 8.20451 14.858C8.04717 14.7006 7.94002 14.5002 7.89662 14.282C7.85321 14.0637 7.87549 13.8375 7.96064 13.632C8.04578 13.4264 8.18998 13.2507 8.37498 13.1271C8.55999 13.0035 8.7775 12.9375 9 12.9375C9.29837 12.9375 9.58452 13.056 9.79549 13.267C10.0065 13.478 10.125 13.7641 10.125 14.0625Z" fill="#5A5E62"/>
<path d="M11.3287 8.43747H1.125L1.125 9.56247H11.3287C11.4583 10.0391 11.7411 10.4599 12.1335 10.7599C12.5259 11.0599 13.0061 11.2224 13.5 11.2224C13.9939 11.2224 14.4741 11.0599 14.8665 10.7599C15.2589 10.4599 15.5417 10.0391 15.6713 9.56247H16.875V8.43747H15.6713C15.5417 7.96083 15.2589 7.54005 14.8665 7.24006C14.4741 6.94007 13.9939 6.77754 13.5 6.77754C13.0061 6.77754 12.5259 6.94007 12.1335 7.24006C11.7411 7.54005 11.4583 7.96083 11.3287 8.43747V8.43747ZM14.625 8.99997C14.625 9.22248 14.559 9.43998 14.4354 9.62499C14.3118 9.81 14.1361 9.95419 13.9305 10.0393C13.725 10.1245 13.4988 10.1468 13.2805 10.1034C13.0623 10.0599 12.8618 9.9528 12.7045 9.79547C12.5472 9.63813 12.44 9.43768 12.3966 9.21945C12.3532 9.00122 12.3755 8.77502 12.4606 8.56945C12.5458 8.36389 12.69 8.18819 12.875 8.06457C13.06 7.94095 13.2775 7.87497 13.5 7.87497C13.7984 7.87497 14.0845 7.9935 14.2955 8.20448C14.5065 8.41546 14.625 8.70161 14.625 8.99997V8.99997Z" fill="#5A5E62"/>
<path d="M4.5 1.68747C4.00244 1.68909 3.51944 1.85559 3.12658 2.16092C2.73371 2.46626 2.45314 2.89321 2.32875 3.37497H1.125L1.125 4.49997H2.32875C2.45828 4.97662 2.74106 5.3974 3.13346 5.69739C3.52586 5.99738 4.00607 6.15991 4.5 6.15991C4.99393 6.15991 5.47414 5.99738 5.86654 5.69739C6.25894 5.3974 6.54172 4.97662 6.67125 4.49997L16.875 4.49997V3.37497L6.67125 3.37497C6.54686 2.89321 6.26629 2.46626 5.87342 2.16092C5.48056 1.85559 4.99756 1.68909 4.5 1.68747ZM5.625 3.93747C5.625 4.15998 5.55902 4.37749 5.4354 4.56249C5.31179 4.7475 5.13609 4.89169 4.93052 4.97684C4.72495 5.06199 4.49875 5.08427 4.28052 5.04086C4.06229 4.99745 3.86184 4.8903 3.7045 4.73297C3.54717 4.57563 3.44002 4.37518 3.39662 4.15695C3.35321 3.93872 3.37549 3.71252 3.46064 3.50695C3.54578 3.30139 3.68998 3.12569 3.87498 3.00207C4.05999 2.87845 4.2775 2.81247 4.5 2.81247C4.79837 2.81247 5.08452 2.931 5.2955 3.14198C5.50647 3.35296 5.625 3.63911 5.625 3.93747Z" fill="#5A5E62"/>
</svg>
