<svg viewBox="0 0 178 178" fill="none" xmlns="http://www.w3.org/2000/svg">
    <path d="M21.716 90.246C21.716 82.414 26.522 76.006 32.396 76.006H107.156C113.03 76.006 117.836 82.414 117.836 90.246C117.836 91.67 118.904 92.56 119.794 92.204L154.326 76.896C155.216 76.54 156.284 77.43 156.284 78.854V150.232C156.284 151.656 155.216 152.546 154.326 152.19L119.794 136.882C118.904 136.526 117.836 137.416 117.836 138.84C117.836 146.672 113.03 153.08 107.156 153.08H32.396C26.522 153.08 21.716 146.672 21.716 138.84V119.26" stroke="#B2BAC2" stroke-width="2" stroke-miterlimit="10" stroke-linecap="round"/>
    <path d="M40.94 65.86C49.0012 65.86 55.536 59.3251 55.536 51.264C55.536 43.2028 49.0012 36.668 40.94 36.668C32.8789 36.668 26.344 43.2028 26.344 51.264C26.344 59.3251 32.8789 65.86 40.94 65.86Z" stroke="#B2BAC2" stroke-width="2" stroke-miterlimit="10" stroke-linecap="round"/>
    <path d="M89 67.996C100.895 67.996 110.538 58.3531 110.538 46.458C110.538 34.5629 100.895 24.92 89 24.92C77.1049 24.92 67.462 34.5629 67.462 46.458C67.462 58.3531 77.1049 67.996 89 67.996Z" stroke="#B2BAC2" stroke-width="2" stroke-miterlimit="10" stroke-linecap="round"/>
</svg>
