<svg width="45" height="45" viewBox="0 0 45 45" fill="none" xmlns="http://www.w3.org/2000/svg">
<g clip-path="url(#clip0_73_138)">
<path d="M39.0112 17.3074L12.4331 0.924596C10.5102 -0.259205 8.18538 -0.308424 6.21408 0.792936C4.24278 1.89412 3.06592 3.89988 3.06592 6.15788V38.7751C3.06592 42.1893 5.8169 44.9818 9.19806 45.0003C9.20729 45.0003 9.21652 45.0004 9.22557 45.0004C10.2822 45.0003 11.3833 44.6691 12.4117 44.0416C13.239 43.5368 13.5005 42.457 12.9957 41.6297C12.491 40.8023 11.411 40.541 10.5839 41.0457C10.1029 41.3391 9.63312 41.4909 9.21696 41.4908C7.94122 41.4838 6.57531 40.391 6.57531 38.7751V6.15797C6.57531 5.18932 7.08015 4.32914 7.92566 3.85672C8.77126 3.38431 9.76838 3.4054 10.5922 3.91262L37.1704 20.2955C37.9692 20.7873 38.4263 21.6074 38.4244 22.5456C38.4225 23.4836 37.962 24.3019 37.1588 24.7921L17.9423 36.558C17.1158 37.0641 16.856 38.1443 17.3621 38.9708C17.868 39.7973 18.9483 40.0571 19.7748 39.551L38.9886 27.7869C40.8283 26.6646 41.9292 24.7081 41.9336 22.553C41.938 20.398 40.845 18.437 39.0108 17.3078L39.0112 17.3074Z" fill="white"/>
</g>
<defs>
<clipPath id="clip0_73_138">
<rect width="45" height="45" fill="white"/>
</clipPath>
</defs>
</svg>
